<mxfile host="app.diagrams.net" modified="2022-02-01T19:55:48.040Z" agent="5.0 (Windows NT 10.0; Win64; x64) AppleWebKit/537.36 (KHTML, like Gecko) Chrome/97.0.4692.99 Safari/537.36" etag="iMZLC9iAFxaYRYoCvPOF" version="16.2.6" type="github">
  <diagram id="C5RBs43oDa-KdzZeNtuy" name="Page-1">
    <mxGraphModel dx="782" dy="1597" grid="1" gridSize="10" guides="1" tooltips="1" connect="1" arrows="1" fold="1" page="1" pageScale="1" pageWidth="827" pageHeight="1169" math="0" shadow="0">
      <root>
        <mxCell id="WIyWlLk6GJQsqaUBKTNV-0" />
        <mxCell id="WIyWlLk6GJQsqaUBKTNV-1" parent="WIyWlLk6GJQsqaUBKTNV-0" />
        <mxCell id="Ss6Qt1x-91et0qIDTQda-6" style="edgeStyle=orthogonalEdgeStyle;rounded=0;orthogonalLoop=1;jettySize=auto;html=1;exitX=0.5;exitY=1;exitDx=0;exitDy=0;entryX=0.5;entryY=0;entryDx=0;entryDy=0;" edge="1" parent="WIyWlLk6GJQsqaUBKTNV-1" source="WIyWlLk6GJQsqaUBKTNV-3" target="Ss6Qt1x-91et0qIDTQda-5">
          <mxGeometry relative="1" as="geometry" />
        </mxCell>
        <mxCell id="WIyWlLk6GJQsqaUBKTNV-3" value="Add New Client" style="rounded=1;whiteSpace=wrap;html=1;fontSize=12;glass=0;strokeWidth=1;shadow=0;" parent="WIyWlLk6GJQsqaUBKTNV-1" vertex="1">
          <mxGeometry x="375" y="60" width="120" height="40" as="geometry" />
        </mxCell>
        <mxCell id="Ss6Qt1x-91et0qIDTQda-1" style="edgeStyle=orthogonalEdgeStyle;rounded=0;orthogonalLoop=1;jettySize=auto;html=1;exitX=0.5;exitY=1;exitDx=0;exitDy=0;entryX=0.5;entryY=0;entryDx=0;entryDy=0;" edge="1" parent="WIyWlLk6GJQsqaUBKTNV-1" source="Ss6Qt1x-91et0qIDTQda-0" target="WIyWlLk6GJQsqaUBKTNV-3">
          <mxGeometry relative="1" as="geometry" />
        </mxCell>
        <mxCell id="Ss6Qt1x-91et0qIDTQda-0" value="Start" style="ellipse;whiteSpace=wrap;html=1;" vertex="1" parent="WIyWlLk6GJQsqaUBKTNV-1">
          <mxGeometry x="390" y="-50" width="90" height="60" as="geometry" />
        </mxCell>
        <mxCell id="Ss6Qt1x-91et0qIDTQda-3" value="Recv Connect" style="text;html=1;strokeColor=none;fillColor=none;align=center;verticalAlign=middle;whiteSpace=wrap;rounded=0;" vertex="1" parent="WIyWlLk6GJQsqaUBKTNV-1">
          <mxGeometry x="440" y="20" width="80" height="30" as="geometry" />
        </mxCell>
        <mxCell id="Ss6Qt1x-91et0qIDTQda-8" style="edgeStyle=orthogonalEdgeStyle;rounded=0;orthogonalLoop=1;jettySize=auto;html=1;exitX=0.5;exitY=1;exitDx=0;exitDy=0;entryX=0.5;entryY=0;entryDx=0;entryDy=0;" edge="1" parent="WIyWlLk6GJQsqaUBKTNV-1" source="Ss6Qt1x-91et0qIDTQda-5" target="Ss6Qt1x-91et0qIDTQda-7">
          <mxGeometry relative="1" as="geometry" />
        </mxCell>
        <mxCell id="Ss6Qt1x-91et0qIDTQda-5" value="Send Send_ball" style="rounded=1;whiteSpace=wrap;html=1;fontSize=12;glass=0;strokeWidth=1;shadow=0;" vertex="1" parent="WIyWlLk6GJQsqaUBKTNV-1">
          <mxGeometry x="375" y="130" width="120" height="40" as="geometry" />
        </mxCell>
        <mxCell id="Ss6Qt1x-91et0qIDTQda-10" style="edgeStyle=orthogonalEdgeStyle;rounded=1;orthogonalLoop=1;jettySize=auto;html=1;exitX=1;exitY=0;exitDx=0;exitDy=0;entryX=0.5;entryY=0;entryDx=0;entryDy=0;" edge="1" parent="WIyWlLk6GJQsqaUBKTNV-1" source="Ss6Qt1x-91et0qIDTQda-7" target="Ss6Qt1x-91et0qIDTQda-9">
          <mxGeometry relative="1" as="geometry">
            <Array as="points">
              <mxPoint x="468" y="190" />
              <mxPoint x="660" y="190" />
            </Array>
          </mxGeometry>
        </mxCell>
        <mxCell id="Ss6Qt1x-91et0qIDTQda-15" style="edgeStyle=orthogonalEdgeStyle;rounded=1;orthogonalLoop=1;jettySize=auto;html=1;exitX=1;exitY=1;exitDx=0;exitDy=0;" edge="1" parent="WIyWlLk6GJQsqaUBKTNV-1" source="Ss6Qt1x-91et0qIDTQda-7" target="Ss6Qt1x-91et0qIDTQda-14">
          <mxGeometry relative="1" as="geometry" />
        </mxCell>
        <mxCell id="Ss6Qt1x-91et0qIDTQda-22" style="edgeStyle=orthogonalEdgeStyle;rounded=1;orthogonalLoop=1;jettySize=auto;html=1;exitX=0.5;exitY=1;exitDx=0;exitDy=0;entryX=1;entryY=0.5;entryDx=0;entryDy=0;" edge="1" parent="WIyWlLk6GJQsqaUBKTNV-1" source="Ss6Qt1x-91et0qIDTQda-7" target="Ss6Qt1x-91et0qIDTQda-21">
          <mxGeometry relative="1" as="geometry" />
        </mxCell>
        <mxCell id="Ss6Qt1x-91et0qIDTQda-7" value="Play" style="ellipse;whiteSpace=wrap;html=1;" vertex="1" parent="WIyWlLk6GJQsqaUBKTNV-1">
          <mxGeometry x="390" y="240" width="90" height="60" as="geometry" />
        </mxCell>
        <mxCell id="Ss6Qt1x-91et0qIDTQda-13" style="edgeStyle=orthogonalEdgeStyle;rounded=1;orthogonalLoop=1;jettySize=auto;html=1;exitX=0.5;exitY=1;exitDx=0;exitDy=0;entryX=1;entryY=0.5;entryDx=0;entryDy=0;" edge="1" parent="WIyWlLk6GJQsqaUBKTNV-1" source="Ss6Qt1x-91et0qIDTQda-9" target="Ss6Qt1x-91et0qIDTQda-7">
          <mxGeometry relative="1" as="geometry">
            <Array as="points">
              <mxPoint x="660" y="270" />
            </Array>
          </mxGeometry>
        </mxCell>
        <mxCell id="Ss6Qt1x-91et0qIDTQda-9" value="Send Move_ball to all players" style="rounded=1;whiteSpace=wrap;html=1;fontSize=12;glass=0;strokeWidth=1;shadow=0;" vertex="1" parent="WIyWlLk6GJQsqaUBKTNV-1">
          <mxGeometry x="600" y="210" width="120" height="50" as="geometry" />
        </mxCell>
        <mxCell id="Ss6Qt1x-91et0qIDTQda-11" value="Recv Move_ball" style="text;html=1;strokeColor=none;fillColor=none;align=center;verticalAlign=middle;whiteSpace=wrap;rounded=0;" vertex="1" parent="WIyWlLk6GJQsqaUBKTNV-1">
          <mxGeometry x="530" y="160" width="90" height="30" as="geometry" />
        </mxCell>
        <mxCell id="Ss6Qt1x-91et0qIDTQda-19" style="edgeStyle=orthogonalEdgeStyle;rounded=1;orthogonalLoop=1;jettySize=auto;html=1;exitX=1;exitY=0.5;exitDx=0;exitDy=0;entryX=1;entryY=0.5;entryDx=0;entryDy=0;" edge="1" parent="WIyWlLk6GJQsqaUBKTNV-1" source="Ss6Qt1x-91et0qIDTQda-14" target="Ss6Qt1x-91et0qIDTQda-18">
          <mxGeometry relative="1" as="geometry" />
        </mxCell>
        <mxCell id="Ss6Qt1x-91et0qIDTQda-14" value="Choose Player" style="rounded=1;whiteSpace=wrap;html=1;fontSize=12;glass=0;strokeWidth=1;shadow=0;" vertex="1" parent="WIyWlLk6GJQsqaUBKTNV-1">
          <mxGeometry x="600" y="320" width="120" height="40" as="geometry" />
        </mxCell>
        <mxCell id="Ss6Qt1x-91et0qIDTQda-16" value="Recv Realese_ball" style="text;html=1;strokeColor=none;fillColor=none;align=center;verticalAlign=middle;whiteSpace=wrap;rounded=0;" vertex="1" parent="WIyWlLk6GJQsqaUBKTNV-1">
          <mxGeometry x="480" y="290" width="130" height="30" as="geometry" />
        </mxCell>
        <mxCell id="Ss6Qt1x-91et0qIDTQda-20" style="edgeStyle=orthogonalEdgeStyle;rounded=1;orthogonalLoop=1;jettySize=auto;html=1;exitX=0;exitY=0.5;exitDx=0;exitDy=0;entryX=0.763;entryY=1.006;entryDx=0;entryDy=0;entryPerimeter=0;" edge="1" parent="WIyWlLk6GJQsqaUBKTNV-1" source="Ss6Qt1x-91et0qIDTQda-18" target="Ss6Qt1x-91et0qIDTQda-7">
          <mxGeometry relative="1" as="geometry">
            <mxPoint x="457" y="290" as="targetPoint" />
          </mxGeometry>
        </mxCell>
        <mxCell id="Ss6Qt1x-91et0qIDTQda-18" value="Send Send_ball" style="rounded=1;whiteSpace=wrap;html=1;fontSize=12;glass=0;strokeWidth=1;shadow=0;" vertex="1" parent="WIyWlLk6GJQsqaUBKTNV-1">
          <mxGeometry x="600" y="370" width="120" height="40" as="geometry" />
        </mxCell>
        <mxCell id="Ss6Qt1x-91et0qIDTQda-23" style="edgeStyle=orthogonalEdgeStyle;rounded=1;orthogonalLoop=1;jettySize=auto;html=1;exitX=0.25;exitY=0;exitDx=0;exitDy=0;entryX=0;entryY=1;entryDx=0;entryDy=0;" edge="1" parent="WIyWlLk6GJQsqaUBKTNV-1" source="Ss6Qt1x-91et0qIDTQda-21" target="Ss6Qt1x-91et0qIDTQda-7">
          <mxGeometry relative="1" as="geometry">
            <Array as="points">
              <mxPoint x="280" y="350" />
              <mxPoint x="403" y="350" />
            </Array>
          </mxGeometry>
        </mxCell>
        <mxCell id="Ss6Qt1x-91et0qIDTQda-21" value="Remove Client" style="rounded=1;whiteSpace=wrap;html=1;fontSize=12;glass=0;strokeWidth=1;shadow=0;" vertex="1" parent="WIyWlLk6GJQsqaUBKTNV-1">
          <mxGeometry x="250" y="390" width="120" height="40" as="geometry" />
        </mxCell>
        <mxCell id="Ss6Qt1x-91et0qIDTQda-24" value="Recv Disconnect" style="text;html=1;strokeColor=none;fillColor=none;align=center;verticalAlign=middle;whiteSpace=wrap;rounded=0;rotation=-90;" vertex="1" parent="WIyWlLk6GJQsqaUBKTNV-1">
          <mxGeometry x="370" y="340" width="100" height="30" as="geometry" />
        </mxCell>
      </root>
    </mxGraphModel>
  </diagram>
</mxfile>
